<svg xmlns="http://www.w3.org/2000/svg" xmlns:xlink="http://www.w3.org/1999/xlink" id="Layer_1" x="0px" y="0px" viewBox="0 0 64 64" style="enable-background:new 0 0 64 64;" xml:space="preserve">
<style type="text/css">
	.st0{fill:#CB2027;}
	.st1{fill:#FFFFFF;}
	.st2{fill:#00401A;}
</style>
<g>
	<path id="Map-Pin" class="st0" d="M32,0C16.5,0,3.9,12.6,3.9,28.1c0,6.5,2.3,12.8,6.4,17.8c3.9,4.7,9.3,8.1,15.2,9.5l5,7.7   c0.3,0.5,0.9,0.9,1.6,0.9s1.2-0.3,1.6-0.9l5-7.7c5.9-1.4,11.3-4.8,15.2-9.5c4.1-5,6.4-11.4,6.4-17.8C60.1,12.6,47.5,0,32,0z"></path>
	<path id="Circle" class="st1" d="M54.6,28.2c0,12.4-10.1,22.5-22.5,22.5c-12.4,0-22.5-10.1-22.5-22.5c0-12.4,10.1-22.5,22.5-22.5   C44.4,5.7,54.6,15.7,54.6,28.2z"></path>
	<g id="Pakistan">
		<path class="st2" d="M32.1,5.7c-3.9,0-7.6,1-10.8,2.7V48c3.2,1.7,6.9,2.7,10.8,2.7c12.4,0,22.5-10.1,22.5-22.5S44.5,5.7,32.1,5.7z     M40.6,34.5c-3.5,2.5-8.4,1.7-10.9-1.8c-2.5-3.5-1.7-8.4,1.8-10.9c1.7-1.2,3.8-1.7,5.7-1.4c-1,0.1-2,0.5-2.9,1.2    c-2.8,2.1-3.5,6-1.4,8.9c2.1,2.8,6,3.5,8.9,1.4c0.9-0.6,1.6-1.5,2-2.4C43.4,31.5,42.3,33.3,40.6,34.5z M43.4,24.4l-1.1,2.1    L42,24.1l-2.3-0.5l2.1-1l-0.3-2.3l1.6,1.7l2.1-1l-1.1,2.1l1.6,1.7L43.4,24.4z"></path>
	</g>
	<path id="Border" class="st1" d="M32.1,51.9C19,51.9,8.3,41.3,8.3,28.2C8.3,15.1,19,4.4,32.1,4.4c13.1,0,23.7,10.7,23.7,23.7   C55.8,41.3,45.2,51.9,32.1,51.9z M32.1,6.9c-11.7,0-21.3,9.5-21.3,21.3s9.5,21.3,21.3,21.3c11.7,0,21.2-9.5,21.2-21.3   C53.3,16.5,43.8,6.9,32.1,6.9z"></path>
</g>
</svg>